# xmcd CD database file
#
# Track frame offsets:
#	150
#	15245
#	33000
#	51586
#	73234
#	91434
#	123341
#	132912
#	152082
#	168527
#	185414
#	206546
#	221632
#
# Disc length: 3069 seconds
#
# Revision: 0
# Processed by: cddbd v1.5.2PL0 Copyright (c) Steve Scherf et al.
# Submitted via: jetAudio 7
#
DISCID=b60bfb0d
DTITLE=Lev Haolam - Songs from the Heartland of Israel
DYEAR=1900
DGENRE=Country
TTITLE0=see my light
TTITLE1=the nation of israel
TTITLE2=and i will bring them
TTITLE3=happy melodies
TTITLE4=beloved of the soul
TTITLE5=come back
TTITLE6=tunes of meron medley
TTITLE7=i wandered like lost lamb
TTITLE8=new light
TTITLE9=the melody of the birds
TTITLE10=a generation comes and goes
TTITLE11=his hearts continuous love
TTITLE12=back home
EXTD=
EXTT0=
EXTT1=
EXTT2=
EXTT3=
EXTT4=
EXTT5=
EXTT6=
EXTT7=
EXTT8=
EXTT9=
EXTT10=
EXTT11=
EXTT12=
PLAYORDER=
